<svg xmlns="http://www.w3.org/2000/svg" width="39" height="39" viewBox="0 0 39 39">
  <g fill="none" fill-rule="evenodd">
    <rect width="39" height="39" fill="#FDF38E"/>
    <path fill="#333" fill-rule="nonzero" d="M26.0011895,19.7592505 L21.8819063,15.4796543 L27.3485829,10.044277 L23.0476116,10 L19.809287,13.3039766 L16.5701991,10 L12.2699912,10.044277 L17.7359043,15.4796543 L13.6189114,19.7592505 C13.6189114,19.7592505 10.1462244,22.8807755 13.373098,26.0839838 C15.6510707,28.3466887 19.8085236,28.3291306 19.8085236,28.3291306 C19.8085236,28.3291306 23.9652132,28.3459253 26.2454761,26.0839838 C29.4708229,22.8807755 26.0011895,19.7592505 26.0011895,19.7592505 Z M23.6438236,25.6068615 C22.0261881,27.1519744 19.809287,27.0802152 19.809287,27.0802152 C19.809287,27.0802152 17.5939127,27.1527378 15.9755139,25.6068615 C14.3578784,24.0609853 15.1846359,22.4792294 15.5457221,22.0112678 C15.9052815,21.5455965 19.8100504,17.6301399 19.8100504,17.6301399 C19.8100504,17.6301399 23.7171096,21.5455965 24.0759056,22.0112678 C24.4339381,22.4792294 25.2599323,24.0602219 23.6438236,25.6068615 Z"/>
  </g>
</svg>
